<mxfile host="app.diagrams.net" modified="2024-01-15T00:30:28.961Z" agent="Mozilla/5.0 (Windows NT 10.0; Win64; x64) AppleWebKit/537.36 (KHTML, like Gecko) Chrome/120.0.0.0 Safari/537.36" etag="m22DdspKZG7jExnXtVSX" version="22.1.18" type="github">
  <diagram id="kgpKYQtTHZ0yAKxKKP6v" name="Page-1">
    <mxGraphModel dx="1434" dy="738" grid="1" gridSize="10" guides="1" tooltips="1" connect="1" arrows="1" fold="1" page="1" pageScale="1" pageWidth="850" pageHeight="1400" math="0" shadow="0">
      <root>
        <mxCell id="0" />
        <mxCell id="1" parent="0" />
        <mxCell id="_DbjeaHfNyGdZA1f-5Q3-20" value="" style="edgeStyle=orthogonalEdgeStyle;rounded=0;orthogonalLoop=1;jettySize=auto;html=1;" edge="1" parent="1" source="_DbjeaHfNyGdZA1f-5Q3-12" target="_DbjeaHfNyGdZA1f-5Q3-7">
          <mxGeometry relative="1" as="geometry" />
        </mxCell>
        <mxCell id="_DbjeaHfNyGdZA1f-5Q3-31" style="edgeStyle=orthogonalEdgeStyle;rounded=0;orthogonalLoop=1;jettySize=auto;html=1;entryX=0.5;entryY=0;entryDx=0;entryDy=0;" edge="1" parent="1" source="_DbjeaHfNyGdZA1f-5Q3-12" target="_DbjeaHfNyGdZA1f-5Q3-5">
          <mxGeometry relative="1" as="geometry" />
        </mxCell>
        <mxCell id="_DbjeaHfNyGdZA1f-5Q3-32" style="edgeStyle=orthogonalEdgeStyle;rounded=0;orthogonalLoop=1;jettySize=auto;html=1;" edge="1" parent="1" source="_DbjeaHfNyGdZA1f-5Q3-12" target="_DbjeaHfNyGdZA1f-5Q3-6">
          <mxGeometry relative="1" as="geometry" />
        </mxCell>
        <mxCell id="_DbjeaHfNyGdZA1f-5Q3-12" value="Entities Layer" style="rounded=0;whiteSpace=wrap;html=1;" vertex="1" parent="1">
          <mxGeometry x="485" y="30" width="120" height="40" as="geometry" />
        </mxCell>
        <mxCell id="_DbjeaHfNyGdZA1f-5Q3-13" value="" style="edgeStyle=orthogonalEdgeStyle;rounded=0;orthogonalLoop=1;jettySize=auto;html=1;entryX=0.5;entryY=0;entryDx=0;entryDy=0;" edge="1" parent="1" source="_DbjeaHfNyGdZA1f-5Q3-1" target="_DbjeaHfNyGdZA1f-5Q3-12">
          <mxGeometry relative="1" as="geometry">
            <mxPoint x="365" y="140" as="targetPoint" />
          </mxGeometry>
        </mxCell>
        <mxCell id="_DbjeaHfNyGdZA1f-5Q3-1" value="&lt;b&gt;Restaurant Backend&lt;/b&gt;" style="shape=image;html=1;verticalAlign=top;verticalLabelPosition=bottom;labelBackgroundColor=#ffffff;imageAspect=0;aspect=fixed;image=https://cdn1.iconfinder.com/data/icons/cartoon-snack/128/pizza-128.png" vertex="1" parent="1">
          <mxGeometry x="60" y="30" width="90" height="90" as="geometry" />
        </mxCell>
        <mxCell id="_DbjeaHfNyGdZA1f-5Q3-27" style="edgeStyle=orthogonalEdgeStyle;rounded=0;orthogonalLoop=1;jettySize=auto;html=1;entryX=0;entryY=0.75;entryDx=0;entryDy=0;" edge="1" parent="1" source="_DbjeaHfNyGdZA1f-5Q3-5" target="_DbjeaHfNyGdZA1f-5Q3-18">
          <mxGeometry relative="1" as="geometry" />
        </mxCell>
        <mxCell id="_DbjeaHfNyGdZA1f-5Q3-5" value="CLIENT" style="rounded=0;whiteSpace=wrap;html=1;" vertex="1" parent="1">
          <mxGeometry x="270" y="110" width="140" height="60" as="geometry" />
        </mxCell>
        <mxCell id="_DbjeaHfNyGdZA1f-5Q3-28" style="edgeStyle=orthogonalEdgeStyle;rounded=0;orthogonalLoop=1;jettySize=auto;html=1;entryX=1;entryY=0.75;entryDx=0;entryDy=0;" edge="1" parent="1" source="_DbjeaHfNyGdZA1f-5Q3-6" target="_DbjeaHfNyGdZA1f-5Q3-18">
          <mxGeometry relative="1" as="geometry" />
        </mxCell>
        <mxCell id="_DbjeaHfNyGdZA1f-5Q3-6" value="PRODUCT" style="rounded=0;whiteSpace=wrap;html=1;" vertex="1" parent="1">
          <mxGeometry x="670" y="110" width="160" height="60" as="geometry" />
        </mxCell>
        <mxCell id="_DbjeaHfNyGdZA1f-5Q3-24" value="" style="edgeStyle=orthogonalEdgeStyle;rounded=0;orthogonalLoop=1;jettySize=auto;html=1;" edge="1" parent="1" source="_DbjeaHfNyGdZA1f-5Q3-7" target="_DbjeaHfNyGdZA1f-5Q3-18">
          <mxGeometry relative="1" as="geometry" />
        </mxCell>
        <mxCell id="_DbjeaHfNyGdZA1f-5Q3-7" value="ORDER" style="rounded=0;whiteSpace=wrap;html=1;" vertex="1" parent="1">
          <mxGeometry x="465" y="110" width="160" height="60" as="geometry" />
        </mxCell>
        <mxCell id="_DbjeaHfNyGdZA1f-5Q3-37" style="edgeStyle=orthogonalEdgeStyle;rounded=0;orthogonalLoop=1;jettySize=auto;html=1;entryX=0;entryY=0.5;entryDx=0;entryDy=0;" edge="1" parent="1" source="_DbjeaHfNyGdZA1f-5Q3-14" target="_DbjeaHfNyGdZA1f-5Q3-33">
          <mxGeometry relative="1" as="geometry" />
        </mxCell>
        <mxCell id="_DbjeaHfNyGdZA1f-5Q3-14" value="EditClientUseCase&lt;br&gt;RegisterNewClientUseCase&lt;br&gt;RemoveClientUseCase" style="rounded=0;whiteSpace=wrap;html=1;" vertex="1" parent="1">
          <mxGeometry x="255" y="290" width="170" height="60" as="geometry" />
        </mxCell>
        <mxCell id="_DbjeaHfNyGdZA1f-5Q3-39" value="" style="edgeStyle=orthogonalEdgeStyle;rounded=0;orthogonalLoop=1;jettySize=auto;html=1;" edge="1" parent="1" source="_DbjeaHfNyGdZA1f-5Q3-15" target="_DbjeaHfNyGdZA1f-5Q3-33">
          <mxGeometry relative="1" as="geometry" />
        </mxCell>
        <mxCell id="_DbjeaHfNyGdZA1f-5Q3-15" value="RegisterNewOrderUseCase&lt;br&gt;UpdateOrderUseCase" style="rounded=0;whiteSpace=wrap;html=1;" vertex="1" parent="1">
          <mxGeometry x="470" y="290" width="160" height="60" as="geometry" />
        </mxCell>
        <mxCell id="_DbjeaHfNyGdZA1f-5Q3-38" style="edgeStyle=orthogonalEdgeStyle;rounded=0;orthogonalLoop=1;jettySize=auto;html=1;entryX=1;entryY=0.5;entryDx=0;entryDy=0;" edge="1" parent="1" source="_DbjeaHfNyGdZA1f-5Q3-16" target="_DbjeaHfNyGdZA1f-5Q3-33">
          <mxGeometry relative="1" as="geometry" />
        </mxCell>
        <mxCell id="_DbjeaHfNyGdZA1f-5Q3-16" value="EditProductUseCase RegisterNewProductUseCase RemoveProductUseCase" style="rounded=0;whiteSpace=wrap;html=1;" vertex="1" parent="1">
          <mxGeometry x="675" y="290" width="160" height="60" as="geometry" />
        </mxCell>
        <mxCell id="_DbjeaHfNyGdZA1f-5Q3-53" style="edgeStyle=orthogonalEdgeStyle;rounded=0;orthogonalLoop=1;jettySize=auto;html=1;entryX=0.5;entryY=0;entryDx=0;entryDy=0;" edge="1" parent="1" source="_DbjeaHfNyGdZA1f-5Q3-17" target="_DbjeaHfNyGdZA1f-5Q3-40">
          <mxGeometry relative="1" as="geometry" />
        </mxCell>
        <mxCell id="_DbjeaHfNyGdZA1f-5Q3-17" value="ClientController OrderController ProductController" style="rounded=0;whiteSpace=wrap;html=1;" vertex="1" parent="1">
          <mxGeometry x="330" y="420" width="120" height="70" as="geometry" />
        </mxCell>
        <mxCell id="_DbjeaHfNyGdZA1f-5Q3-29" style="edgeStyle=orthogonalEdgeStyle;rounded=0;orthogonalLoop=1;jettySize=auto;html=1;" edge="1" parent="1" source="_DbjeaHfNyGdZA1f-5Q3-18" target="_DbjeaHfNyGdZA1f-5Q3-14">
          <mxGeometry relative="1" as="geometry" />
        </mxCell>
        <mxCell id="_DbjeaHfNyGdZA1f-5Q3-30" style="edgeStyle=orthogonalEdgeStyle;rounded=0;orthogonalLoop=1;jettySize=auto;html=1;" edge="1" parent="1" source="_DbjeaHfNyGdZA1f-5Q3-18" target="_DbjeaHfNyGdZA1f-5Q3-16">
          <mxGeometry relative="1" as="geometry" />
        </mxCell>
        <mxCell id="_DbjeaHfNyGdZA1f-5Q3-18" value="Use Cases Layer" style="rounded=0;whiteSpace=wrap;html=1;" vertex="1" parent="1">
          <mxGeometry x="485" y="210" width="120" height="40" as="geometry" />
        </mxCell>
        <mxCell id="_DbjeaHfNyGdZA1f-5Q3-26" style="edgeStyle=orthogonalEdgeStyle;rounded=0;orthogonalLoop=1;jettySize=auto;html=1;entryX=0.463;entryY=-0.045;entryDx=0;entryDy=0;entryPerimeter=0;" edge="1" parent="1" source="_DbjeaHfNyGdZA1f-5Q3-18" target="_DbjeaHfNyGdZA1f-5Q3-15">
          <mxGeometry relative="1" as="geometry" />
        </mxCell>
        <mxCell id="_DbjeaHfNyGdZA1f-5Q3-35" style="edgeStyle=orthogonalEdgeStyle;rounded=0;orthogonalLoop=1;jettySize=auto;html=1;entryX=0.5;entryY=0;entryDx=0;entryDy=0;" edge="1" parent="1" source="_DbjeaHfNyGdZA1f-5Q3-33" target="_DbjeaHfNyGdZA1f-5Q3-17">
          <mxGeometry relative="1" as="geometry">
            <mxPoint x="230" y="590" as="targetPoint" />
          </mxGeometry>
        </mxCell>
        <mxCell id="_DbjeaHfNyGdZA1f-5Q3-36" style="edgeStyle=orthogonalEdgeStyle;rounded=0;orthogonalLoop=1;jettySize=auto;html=1;entryX=0.5;entryY=0;entryDx=0;entryDy=0;" edge="1" parent="1" source="_DbjeaHfNyGdZA1f-5Q3-33" target="_DbjeaHfNyGdZA1f-5Q3-34">
          <mxGeometry relative="1" as="geometry">
            <mxPoint x="500" y="590" as="targetPoint" />
          </mxGeometry>
        </mxCell>
        <mxCell id="_DbjeaHfNyGdZA1f-5Q3-33" value="Adapters Layer" style="rounded=0;whiteSpace=wrap;html=1;" vertex="1" parent="1">
          <mxGeometry x="490" y="370" width="120" height="40" as="geometry" />
        </mxCell>
        <mxCell id="_DbjeaHfNyGdZA1f-5Q3-54" style="edgeStyle=orthogonalEdgeStyle;rounded=0;orthogonalLoop=1;jettySize=auto;html=1;entryX=0.5;entryY=0;entryDx=0;entryDy=0;" edge="1" parent="1" source="_DbjeaHfNyGdZA1f-5Q3-34" target="_DbjeaHfNyGdZA1f-5Q3-40">
          <mxGeometry relative="1" as="geometry" />
        </mxCell>
        <mxCell id="_DbjeaHfNyGdZA1f-5Q3-34" value="ClientRepository NotificationRepository OrderQueueRepository OrderRepository ProductRepository" style="rounded=0;whiteSpace=wrap;html=1;" vertex="1" parent="1">
          <mxGeometry x="620" y="420" width="120" height="70" as="geometry" />
        </mxCell>
        <mxCell id="_DbjeaHfNyGdZA1f-5Q3-55" style="edgeStyle=orthogonalEdgeStyle;rounded=0;orthogonalLoop=1;jettySize=auto;html=1;" edge="1" parent="1" source="_DbjeaHfNyGdZA1f-5Q3-40" target="_DbjeaHfNyGdZA1f-5Q3-46">
          <mxGeometry relative="1" as="geometry" />
        </mxCell>
        <mxCell id="_DbjeaHfNyGdZA1f-5Q3-56" style="edgeStyle=orthogonalEdgeStyle;rounded=0;orthogonalLoop=1;jettySize=auto;html=1;" edge="1" parent="1" source="_DbjeaHfNyGdZA1f-5Q3-40" target="_DbjeaHfNyGdZA1f-5Q3-48">
          <mxGeometry relative="1" as="geometry" />
        </mxCell>
        <mxCell id="_DbjeaHfNyGdZA1f-5Q3-40" value="Infrastructure Layer" style="rounded=0;whiteSpace=wrap;html=1;" vertex="1" parent="1">
          <mxGeometry x="480" y="490" width="120" height="40" as="geometry" />
        </mxCell>
        <mxCell id="_DbjeaHfNyGdZA1f-5Q3-46" value="ClientRepositoryDb NotificationRepositoryDB OrderQueueRepositoryDB OrderRepositoryDb ProductRepositoryDb" style="rounded=0;whiteSpace=wrap;html=1;" vertex="1" parent="1">
          <mxGeometry x="590" y="570" width="160" height="80" as="geometry" />
        </mxCell>
        <mxCell id="_DbjeaHfNyGdZA1f-5Q3-48" value="&lt;p style=&quot;line-height: 120%;&quot;&gt;DataBaseConfiguration&amp;nbsp; JPARepositoriesAutoConfiguration&lt;/p&gt;" style="rounded=0;whiteSpace=wrap;html=1;" vertex="1" parent="1">
          <mxGeometry x="300" y="570" width="190" height="80" as="geometry" />
        </mxCell>
        <mxCell id="_DbjeaHfNyGdZA1f-5Q3-57" value="Utility Layer" style="rounded=0;whiteSpace=wrap;html=1;" vertex="1" parent="1">
          <mxGeometry x="480" y="680" width="120" height="40" as="geometry" />
        </mxCell>
        <mxCell id="_DbjeaHfNyGdZA1f-5Q3-58" value="CronJob NumberOrderGenerator ProblemAware ValidCPF CpfValidator EmailValidator PhoneNumberValidator" style="rounded=0;whiteSpace=wrap;html=1;" vertex="1" parent="1">
          <mxGeometry x="300" y="740" width="190" height="160" as="geometry" />
        </mxCell>
      </root>
    </mxGraphModel>
  </diagram>
</mxfile>
